<svg width="154" height="30" viewBox="0 0 154 30" fill="none" xmlns="http://www.w3.org/2000/svg">
<path d="M39.4989 13.5224L38.912 15.7533H36.0477C35.9388 15.8893 35.8456 16.0059 35.7795 16.0914C35.6862 16.2041 35.5113 16.4023 35.2548 16.6744C36.1915 17.1991 36.961 17.8326 37.5595 18.5865C38.2358 19.4221 38.5195 20.2111 38.4029 20.9496H35.4219C35.5191 20.2461 35.4997 19.6359 35.3559 19.1112C35.3209 18.9635 35.0993 18.3922 34.6913 17.405C33.7313 18.5827 33.2416 19.1851 33.226 19.2084C32.643 19.8808 32.1067 20.4599 31.617 20.9534H28.7177C29.5222 20.079 30.2839 19.2045 30.999 18.33C31.8502 17.2651 32.4682 16.4062 32.8413 15.761H30.1984L30.7853 13.5496H33.8518L34.1588 12.3292H37.2603L36.9532 13.5302H39.4911L39.4989 13.5224ZM38.7488 27.6033C37.4585 28.1396 36.0671 28.4078 34.5785 28.4078C33.1211 28.435 31.8191 28.1707 30.6687 27.6227C29.3006 26.9853 28.6904 26.1225 28.8342 25.0343C29.0014 23.9305 29.8564 23.0638 31.3994 22.4264C32.6936 21.8784 34.0733 21.6103 35.5346 21.6258C37.0076 21.5869 38.3174 21.8396 39.4678 22.3915C40.832 23.0289 41.4383 23.8994 41.2828 24.9993C41.1274 26.0837 40.284 26.9542 38.7527 27.6072L38.7488 27.6033ZM38.4184 24.4902C38.4184 24.1909 38.2474 23.9577 37.921 23.7945C37.6295 23.6585 37.373 23.5613 37.1398 23.5147C36.9182 23.4758 36.6306 23.4525 36.2808 23.4525C35.6162 23.4797 34.9594 23.5885 34.3104 23.7751C33.6225 23.9772 33.0123 24.2492 32.472 24.6029C32.064 24.9099 31.8657 25.2325 31.8774 25.5551C31.8774 25.8544 32.0523 26.0876 32.3943 26.2469C32.5848 26.3479 32.8335 26.4335 33.1444 26.4918C33.4514 26.5695 33.7429 26.6006 34.0189 26.5889C34.8312 26.5384 35.4919 26.4451 36.001 26.3052C36.6501 26.1303 37.2603 25.8349 37.8277 25.4191C38.2125 25.1237 38.4068 24.8089 38.4184 24.4863V24.4902ZM44.5048 12.6168L41.7647 21.6958L39.1258 21.6763L39.8487 18.4699L38.158 18.4894L38.7138 16.3362H40.42L41.2673 12.6013L44.5048 12.6207V12.6168Z" fill="#9D1F23"/>
<path d="M51.5588 18.2096C51.0303 19.8497 50.4823 21.2178 49.907 22.3177C49.1958 23.744 48.2747 24.91 47.1476 25.8233C45.9389 26.8105 44.633 27.3663 43.23 27.4906L43.5875 25.3142C44.8079 25.0266 45.8184 24.2765 46.6152 23.0639C47.0194 22.4653 47.4352 21.5481 47.8705 20.3239C48.2319 19.3717 48.539 18.435 48.7955 17.51C48.982 16.8221 49.1453 16.1458 49.2852 15.4657H45.4181L45.8961 13.4019H51.2634C51.6832 13.4019 52.0019 13.5613 52.2195 13.8722C52.4566 14.1948 52.5149 14.6029 52.3905 15.0926C52.1923 16.0176 51.9164 17.0514 51.5627 18.2018L51.5588 18.2096ZM59.6389 12.6013L56.0322 27.9609H53.6809L55.4298 19.6359H54.7147L52.9113 27.9609H50.5095L53.5565 12.6013L56.246 12.6208L55.2083 17.3468H55.9234L56.93 12.6013H59.6389Z" fill="#9D1F23"/>
<path d="M73.6305 20.9846L73.0747 23.2504L68.1505 23.2349L66.8329 28.1125H63.7975L64.9596 23.2349H58.9938L59.4796 20.9846H73.6227H73.6305ZM73.0747 20.2345H70.0743L71.0654 16.2041C71.1353 15.9399 71.112 15.7417 70.9954 15.6056C70.8982 15.4813 70.7544 15.4152 70.564 15.4152H61.3063L61.761 13.2776H73.2651C73.7432 13.2776 74.1085 13.4292 74.3611 13.7284C74.6332 14.0549 74.7031 14.4474 74.571 14.9099L73.0747 20.2345Z" fill="#9D1F23"/>
<path d="M83.4906 24.8478L82.6745 27.1136L76.215 27.1369C75.5466 27.1369 75.0802 26.8377 74.8237 26.2353C74.6099 25.7494 74.5594 25.2053 74.6799 24.6068L75.8536 18.6954H80.8633L81.4152 16.2235C81.4463 16.072 81.4385 15.9398 81.3841 15.8271C81.3181 15.6794 81.1781 15.6017 80.9566 15.6017H76.5415L77.0157 13.3125H82.8455C83.6228 13.2737 84.1824 13.468 84.5206 13.8916C84.8082 14.2686 84.8781 14.7272 84.7343 15.2636L83.3157 20.9807H78.3565L77.688 23.9033C77.6103 24.2065 77.6258 24.4397 77.7269 24.6029C77.8163 24.7506 77.9717 24.8283 78.1894 24.8283L83.4906 24.8478ZM90.1521 12.5974L86.1723 27.957H83.3779L86.8641 12.5974H90.1521Z" fill="#9D1F23"/>
<path d="M105.92 21.5443L105.298 23.7946H100.56L99.3749 28.1086H96.3434L97.4122 23.779H91.4619L91.9322 21.5443H105.924H105.92ZM106.701 13.332L106.134 15.4113L97.1673 15.4346L96.9419 16.0526H106.165L105.554 18.0969H96.2968L96.2113 18.3418C96.1724 18.4661 96.1802 18.5711 96.2346 18.6566C96.2812 18.7187 96.3473 18.746 96.425 18.746H105.694L105.034 20.7747L94.7033 20.7942C93.9804 20.7475 93.4946 20.4366 93.2303 19.873C92.9932 19.3717 92.9815 18.7732 93.1914 18.0736L94.5556 13.3281H106.689L106.701 13.332Z" fill="#232423"/>
<path d="M117.793 13.2426L117.206 15.4735H114.342C114.155 15.9243 113.918 16.4956 113.634 17.1913C113.347 17.8831 113.079 18.4855 112.826 19.0024C113.864 19.838 114.591 20.9651 115.006 22.3759C115.418 23.8023 115.457 25.3686 115.115 27.067H112.22C112.538 25.8427 112.694 24.7156 112.69 23.6896C112.69 22.477 112.472 21.4043 112.037 20.4638C111.407 21.7774 110.755 22.9939 110.078 24.1016C109.371 25.2675 108.671 26.2547 107.972 27.067H105.298C106.654 25.4308 107.836 23.5575 108.846 21.4587C109.705 19.7098 110.482 17.716 111.17 15.4774H108.256L108.823 13.2465H117.789L117.793 13.2426ZM122.927 17.7238L122.453 19.7487H120.51L118.364 27.9609H115.636L119.072 12.6013H122.36L120.992 17.7432L122.919 17.7238H122.927Z" fill="#232423"/>
<path d="M135.52 25.4851H125.772L125.687 25.8388C125.663 25.9165 125.667 25.971 125.694 26.0059C125.722 26.0603 125.772 26.0798 125.838 26.0798H135.555L134.921 27.9181L123.817 27.8792C123.215 27.8792 122.803 27.6577 122.577 27.2224C122.403 26.861 122.368 26.4529 122.476 26.0021L123.079 23.639L132.842 23.6585L132.966 23.2465C132.989 23.1999 132.982 23.1493 132.954 23.0988C132.916 23.0483 132.85 23.0211 132.76 23.0211L123.421 23.0405L123.899 21.2061H135.065C135.609 21.2061 135.986 21.3693 136.188 21.6919C136.367 21.9639 136.398 22.3176 136.297 22.7413L135.52 25.4813V25.4851ZM138.431 18.47L137.785 20.4016H122.989L123.553 18.47H134.358L134.579 17.4983H124.987L125.461 15.5473L135.003 15.5706L135.096 15.1392C135.123 15.0381 135.112 14.9604 135.061 14.8943C135.007 14.8049 134.871 14.7622 134.653 14.7622H125.45L125.959 12.8306L136.938 12.8112C137.537 12.8267 137.964 12.9822 138.221 13.2814C138.469 13.5962 138.512 14.0004 138.353 14.5018L137.319 18.4738H138.427L138.431 18.47Z" fill="#232423"/>
<path d="M151.684 21.4354L150.343 26.3674C150.211 26.8027 149.958 27.1719 149.593 27.4751C149.161 27.7977 148.66 27.9609 148.093 27.9609L140.743 27.9803L140.514 26.725L140.156 28.0386H137.241L138.823 21.4043H141.909L141.594 22.6558H148.345L148.703 21.4393H151.688L151.684 21.4354ZM148.804 18.7498L147.875 20.7786H140.117C139.608 20.7786 139.235 20.5648 138.998 20.1451C138.761 19.7176 138.71 19.1696 138.839 18.4894L139.406 15.8854H144.552L144.692 15.4929C144.731 15.3802 144.727 15.283 144.684 15.1936C144.63 15.0965 144.54 15.0421 144.416 15.0421H139.88L140.382 13.0522H146.344C146.899 13.0405 147.335 13.1532 147.642 13.3942C148.026 13.7051 148.135 14.1754 147.957 14.8011L147.098 17.8948L142.103 17.8753L141.956 18.3262C141.932 18.4739 141.948 18.5866 141.991 18.6604C142.049 18.7498 142.131 18.7965 142.247 18.7965L148.796 18.7537L148.804 18.7498ZM147.836 24.6807H141.019L140.724 25.936H146.997C147.109 25.936 147.222 25.8933 147.319 25.8233C147.42 25.7495 147.498 25.6601 147.545 25.559L147.84 24.6768L147.836 24.6807ZM154 12.6013L151.629 20.8757H148.815L149.546 17.8365H147.688L148.256 15.866H150.009L150.759 12.6013H153.996H154Z" fill="#232423"/>
<path d="M21.4265 1C21.4265 1 14.9826 3.20366 8.53871 9.26277C2.09484 15.3258 0 22.6247 0 22.6247C0 22.6247 4.70659 15.4346 12.7206 13.7556C19.5804 12.2943 25.1148 16.5928 25.1148 16.5928L21.4265 1Z" fill="#EC8423"/>
<path d="M14.8738 13.9732C14.8738 13.9732 15.6744 20.557 12.0638 23.2543C8.4571 25.9515 3.90985 24.4125 0 23.0056C0 23.0056 6.41667 28.5205 12.8916 28.5205C19.3666 28.5205 21.4576 20.7203 21.4576 20.7203L14.8738 13.9694V13.9732Z" fill="#A51E23"/>
<path d="M34.559 3.08323C34.2092 5.05759 33.2026 6.88815 30.8241 8.12018L30.5054 7.61493C32.4253 6.63163 33.3892 5.24803 33.7701 3.65455H31.4887L31.5897 3.08323H34.5551H34.559ZM37.9286 2.09216L36.5761 9.76418H35.9077L36.615 5.75328H35.5812L34.9438 9.37941H34.2909L35.5384 2.29815H36.1914L35.6822 5.18196H36.7161L37.2602 2.09605H37.9286V2.09216Z" fill="#231F20"/>
<path d="M40.6648 6.41014C39.5377 6.41014 38.8304 5.62506 39.0247 4.51351C39.219 3.40974 40.2023 2.63243 41.3294 2.63243C42.4565 2.63243 43.1833 3.40974 42.989 4.51351C42.7947 5.62506 41.7997 6.41014 40.6609 6.41014H40.6648ZM40.7737 5.80384C41.5276 5.80384 42.1806 5.27527 42.3166 4.51351C42.4488 3.77119 41.9824 3.23873 41.2284 3.23873C40.4744 3.23873 39.837 3.7673 39.7087 4.51351C39.5727 5.27527 40.0391 5.80384 40.7775 5.80384H40.7737ZM44.5203 9.01801L44.4192 9.58933H39.3007L39.736 7.12526H40.4316L40.0974 9.01412H44.5203V9.01801ZM44.5203 7.70047H43.8246L44.8118 2.09998H45.5075L44.5203 7.70047Z" fill="#231F20"/>
<path d="M53.0395 7.30787H49.938L49.5066 9.76028H48.8109L49.2423 7.30787H46.1409L46.2419 6.73655H53.1405L53.0395 7.30787ZM52.5148 5.94759H47.3029L47.9209 2.44971H53.0395L52.9384 3.01325H48.5078L48.3523 3.90327H52.6081L52.5148 4.4435H48.259L48.0919 5.38404H52.6158L52.5148 5.94759Z" fill="#231F20"/>
<path d="M57.0115 4.43578C56.7977 5.66004 57.4196 7.02033 58.4301 7.54112L57.9326 8.10467C57.1592 7.67715 56.6073 6.77936 56.4402 5.75332C55.8961 6.87264 54.9866 7.84816 54.05 8.29511L53.7429 7.73934C54.9244 7.19133 56.0943 5.73777 56.3236 4.43967L56.4946 3.46415H54.7573L54.8584 2.88117H58.9703L58.8693 3.46415H57.1825L57.0115 4.43967V4.43578ZM61.3178 5.77664H60.0624L59.359 9.76033H58.6633L60.0158 2.09998H60.7115L60.1674 5.18588H61.4227L61.3178 5.77664Z" fill="#231F20"/>
<path d="M64.804 4.43578C64.5902 5.66004 65.2121 7.02033 66.2226 7.54112L65.7251 8.10467C64.9517 7.67715 64.3998 6.77936 64.2327 5.75332C63.6885 6.87264 62.7791 7.84816 61.8424 8.29511L61.5354 7.73934C62.7169 7.19133 63.8868 5.73777 64.1161 4.43967L64.2871 3.46415H62.5498L62.6508 2.88117H66.7628L66.6617 3.46415H64.975L64.804 4.43967V4.43578ZM69.1103 5.77664H67.8549L67.1514 9.76033H66.4558L67.8083 2.09998H68.504L67.9598 5.18588H69.2152L69.1103 5.77664Z" fill="#231F20"/>
<path d="M76.7163 5.65612L76.623 6.18469H69.7322L69.8255 5.65612H76.7163ZM70.7349 9.154H75.4804L75.391 9.65925H69.9576L70.2569 7.95695H74.7652L74.878 7.31567H70.354L70.4434 6.81042H75.6553L75.3677 8.44276H70.8593L70.7349 9.154ZM75.6514 2.80729H71.1935L71.279 2.30981H76.4248L76.1411 3.90718H71.6988L71.5822 4.564H76.1605L76.0711 5.06925H70.8087L71.1002 3.42914H75.5387L75.6475 2.8034L75.6514 2.80729Z" fill="#231F20"/>
<path d="M84.8935 6.50342C84.1512 6.63167 83.3972 6.71718 82.6704 6.75993L82.1846 9.52325H81.4889L81.967 6.80268C81.2052 6.83766 80.4862 6.84543 79.8566 6.84543L79.8682 6.25468C81.2829 6.25468 83.2106 6.23913 84.9246 5.98262L84.8935 6.50342ZM80.8282 4.03158C80.9953 3.09104 81.9125 2.44976 83.0474 2.44976C84.1823 2.44976 84.8663 3.09104 84.6992 4.03158C84.536 4.96435 83.6148 5.60563 82.4878 5.60563C81.3607 5.60563 80.6611 4.96435 80.8243 4.03158H80.8282ZM81.4967 4.03158C81.3917 4.63011 81.8465 5.03042 82.5927 5.03042C83.3389 5.03042 83.9258 4.63011 84.0307 4.03158C84.1356 3.43306 83.6809 3.03274 82.9464 3.03274C82.2118 3.03274 81.6055 3.43306 81.5006 4.03158H81.4967ZM86.8562 2.09998L85.5037 9.77199H84.808L86.1605 2.09998H86.8562Z" fill="#231F20"/>
<path d="M92.6588 3.59629H88.1737L88.2748 3.03274H90.1636L90.3268 2.09998H91.0225L90.8593 3.03274H92.7559L92.6549 3.59629H92.6588ZM89.8371 6.87264C88.7606 6.87264 88.1232 6.30909 88.2748 5.44628C88.4263 4.59124 89.2619 4.0277 90.3385 4.0277C91.4151 4.0277 92.0602 4.59124 91.9087 5.44628C91.7571 6.30909 90.9098 6.87264 89.8333 6.87264H89.8371ZM89.9343 6.32464C90.6222 6.32464 91.1547 5.98262 91.2518 5.44239C91.3451 4.91383 90.9331 4.57181 90.2452 4.57181C89.5573 4.57181 89.0326 4.91383 88.9394 5.44239C88.8461 5.98262 89.2425 6.32464 89.9382 6.32464H89.9343ZM89.0598 9.01801H93.4322L93.3311 9.58933H88.2631L88.6518 7.39344H89.3474L89.0598 9.01801ZM94.9946 4.62234L94.8896 5.21309H93.7625L93.2962 7.84816H92.6005L93.6149 2.09998H94.3105L93.8675 4.62234H94.9946Z" fill="#231F20"/>
<path d="M104.591 7.03193H101.481L100.999 9.76028H100.304L100.786 7.03193H97.7191L97.8202 6.46061H104.684L104.591 7.03193ZM98.4381 5.26356C99.7945 5.06535 101.264 4.18699 101.442 3.17649L101.45 3.13374H99.0522L99.1532 2.57019H104.703L104.602 3.13374H102.22L102.212 3.17649C102.033 4.18699 103.191 5.06535 104.497 5.26356L104.128 5.81933C102.985 5.61335 101.971 4.97207 101.676 4.06651C101.05 4.97207 99.8178 5.61335 98.6053 5.81933L98.442 5.26356H98.4381Z" fill="#231F20"/>
<path d="M109.88 6.25468C109.064 5.93987 108.493 5.27916 108.302 4.4319C107.812 5.33746 106.992 6.04869 106.04 6.39071L105.784 5.83493C107 5.41519 107.96 4.34639 108.162 3.19986L108.294 2.44588H108.99L108.858 3.19986C108.664 4.30364 109.266 5.30248 110.323 5.69502L109.876 6.25079L109.88 6.25468ZM106.647 7.10194H111.73L111.26 9.77199H110.564L110.937 7.66938H106.549L106.65 7.10583L106.647 7.10194ZM112.612 2.09998L111.8 6.7094H111.104L111.917 2.09998H112.612Z" fill="#231F20"/>
<path d="M117.552 6.37516C116.759 6.06813 116.219 5.43462 116.025 4.64954C115.547 5.53956 114.715 6.25857 113.767 6.60058L113.502 6.04481C114.711 5.62506 115.675 4.59124 115.869 3.48747L115.916 3.22318H114.221L114.322 2.65964H118.38L118.279 3.22318H116.612L116.565 3.48747C116.39 4.47076 116.969 5.43851 117.999 5.83105L117.556 6.37905L117.552 6.37516ZM119.352 8.33398C119.192 9.23954 118.135 9.76033 116.573 9.76033C115.01 9.76033 114.132 9.23954 114.291 8.33398C114.451 7.42841 115.516 6.90762 117.078 6.90762C118.64 6.90762 119.511 7.42841 119.352 8.33398ZM118.664 8.33398C118.761 7.7782 118.127 7.44396 116.981 7.44396C115.834 7.44396 115.084 7.7782 114.987 8.33398C114.89 8.88975 115.527 9.21622 116.67 9.21622C117.812 9.21622 118.566 8.88975 118.664 8.33398ZM119.379 4.08211L119.729 2.09998H120.432L119.627 6.66665H118.924L119.278 4.65731H117.778L117.879 4.08599H119.379V4.08211Z" fill="#231F20"/>
<path d="M127.778 8.20576L127.676 8.77708H120.786L120.887 8.20576H123.973L124.264 6.55398H121.994L122.686 2.63635H123.374L123.133 4.00441H127.016L127.257 2.63635H127.933L127.241 6.55398H124.971L124.68 8.20576H127.781H127.778ZM122.779 5.99043H126.662L126.911 4.57962H123.028L122.779 5.99043Z" fill="#231F20"/>
<path d="M131.645 7.65772C132.371 7.62274 133.118 7.57221 133.829 7.47894L133.786 7.99973C132.041 8.28345 130.207 8.30677 128.807 8.30677V7.71602C129.453 7.71602 130.183 7.70824 130.941 7.68104L131.085 6.86098C130.207 6.74827 129.717 6.2197 129.853 5.45017C130.005 4.58736 130.848 4.03158 131.932 4.03158C133.017 4.03158 133.658 4.58736 133.502 5.45017C133.37 6.21193 132.698 6.7405 131.781 6.85321L131.637 7.65772H131.645ZM134.319 3.59629H129.701L129.802 3.03274H131.769L131.932 2.09998H132.628L132.465 3.03274H134.424L134.322 3.59629H134.319ZM131.532 6.32464C132.22 6.32464 132.752 5.98262 132.846 5.45405C132.939 4.91383 132.527 4.57181 131.839 4.57181C131.151 4.57181 130.611 4.91383 130.514 5.45405C130.42 5.98262 130.832 6.32464 131.528 6.32464H131.532ZM135.955 2.09998L134.602 9.76033H133.907L135.259 2.09998H135.955Z" fill="#231F20"/>
<path d="M139.748 4.13654C139.511 5.48905 140.129 6.88043 141.101 7.42066L140.568 7.97643C139.841 7.54114 139.313 6.64335 139.15 5.5901C138.621 6.70942 137.75 7.6694 136.814 8.1319L136.499 7.56835C137.692 7.0048 138.815 5.5318 139.06 4.14043L139.301 2.76459H139.989L139.748 4.14043V4.13654ZM144.008 5.78832H142.752L142.053 9.76424H141.357L142.71 2.10388H143.405L142.857 5.20922H144.113L144.012 5.7922L144.008 5.78832Z" fill="#231F20"/>
</svg>
