<svg width="164" height="126" viewBox="0 0 164 126" fill="none" xmlns="http://www.w3.org/2000/svg">
<path d="M14.103 105.675L13.3383 108.594H9.58491C9.43897 108.775 9.32223 108.921 9.23467 109.032C9.11208 109.183 8.87859 109.44 8.54586 109.796C9.7717 110.479 10.7816 111.314 11.5579 112.301C12.451 113.398 12.8188 114.425 12.667 115.394H8.76184C8.89026 114.478 8.86692 113.678 8.67428 112.989C8.62758 112.791 8.34155 112.05 7.80452 110.754C6.54949 112.289 5.90739 113.077 5.88987 113.112C5.12518 113.999 4.4247 114.758 3.78259 115.394H0C1.05656 114.25 2.04891 113.106 2.98288 111.956C4.10365 110.567 4.90336 109.446 5.3937 108.594H1.938L2.70269 105.699H6.71294L7.12155 104.105H11.1843L10.7874 105.675H14.1088H14.103ZM13.1165 124.11C11.4237 124.816 9.60242 125.166 7.65859 125.166C5.74978 125.201 4.04527 124.857 2.53924 124.133C0.753016 123.298 -0.052536 122.172 0.140096 120.747C0.356078 119.305 1.47101 118.173 3.49656 117.332C5.18939 116.614 6.99313 116.264 8.90778 116.282C10.8341 116.235 12.5503 116.568 14.0563 117.286C15.8425 118.12 16.6306 119.259 16.4263 120.695C16.2278 122.119 15.1187 123.257 13.1107 124.11H13.1165ZM12.6845 120.035C12.6845 119.638 12.4686 119.34 12.0366 119.13C11.6572 118.949 11.3186 118.827 11.0151 118.763C10.729 118.71 10.3496 118.687 9.88845 118.687C9.01869 118.722 8.1606 118.856 7.31418 119.107C6.4094 119.364 5.60968 119.72 4.90336 120.187C4.37217 120.595 4.11532 121.01 4.127 121.436C4.127 121.833 4.36049 122.137 4.80413 122.347C5.05513 122.481 5.37619 122.586 5.7848 122.668C6.18758 122.767 6.567 122.814 6.92892 122.79C7.99131 122.726 8.86108 122.603 9.52653 122.423C10.3788 122.195 11.1727 121.81 11.9257 121.273C12.4219 120.876 12.6845 120.473 12.6962 120.047L12.6845 120.035ZM20.6525 104.49L17.0625 116.375L13.6127 116.352L14.5583 112.155L12.346 112.178L13.0756 109.359H15.3055L16.4146 104.473L20.6525 104.496V104.49Z" fill="#9D1F23"/>
<path d="M29.893 111.816C29.1984 113.964 28.4862 115.756 27.7274 117.192C26.7992 119.054 25.5909 120.59 24.1141 121.786C22.5321 123.076 20.8276 123.806 18.983 123.969L19.4559 121.121C21.0553 120.747 22.3745 119.766 23.4136 118.179C23.9448 117.397 24.4876 116.2 25.0597 114.595C25.5325 113.351 25.9353 112.125 26.2739 110.911C26.5132 110.012 26.7292 109.119 26.916 108.232H21.8492L22.4738 105.529H29.5019C30.0506 105.529 30.4709 105.739 30.7569 106.142C31.0663 106.568 31.148 107.099 30.9788 107.736C30.7161 108.944 30.3542 110.31 29.893 111.81V111.816ZM40.4703 104.473L35.7479 124.576H32.6658L34.9598 113.678H34.02L31.6559 124.576H28.5096L32.4965 104.473L36.0222 104.496L34.6621 110.684H35.5961L36.9153 104.467H40.4644L40.4703 104.473Z" fill="#9D1F23"/>
<path d="M58.7936 115.447L58.064 118.418L51.6196 118.395L49.8917 124.769H45.9223L47.44 118.395H39.6355L40.2718 115.447H58.7936ZM58.064 114.466H54.1354L55.4313 109.184C55.5247 108.839 55.4955 108.582 55.3438 108.401C55.2153 108.232 55.0286 108.15 54.7775 108.15H42.6592L43.2546 105.354H58.315C58.9396 105.354 59.4182 105.547 59.751 105.944C60.1012 106.37 60.1946 106.889 60.0195 107.491L58.0581 114.466H58.064Z" fill="#9D1F23"/>
<path d="M71.6941 120.508L70.6259 123.479L62.1676 123.502C61.292 123.502 60.6849 123.105 60.3463 122.323C60.0661 121.681 60.0019 120.975 60.1595 120.187L61.6947 112.452H68.2559L68.9797 109.207C69.0206 109.014 69.0089 108.839 68.9389 108.693C68.8455 108.5 68.6587 108.401 68.3785 108.401H62.5995L63.2241 105.407H70.8535C71.875 105.36 72.6047 105.605 73.0425 106.165C73.4219 106.656 73.5153 107.251 73.3285 107.958L71.4723 115.447H64.9812L64.1114 119.276C64.0122 119.673 64.0297 119.971 64.1581 120.193C64.2807 120.385 64.485 120.484 64.7652 120.484L71.6999 120.508H71.6941ZM80.4151 104.473L75.2023 124.576H71.5423L76.1071 104.473H80.4092H80.4151Z" fill="#9D1F23"/>
<path d="M101.056 116.183L100.239 119.13H94.0337L92.4809 124.775H88.5115L89.9125 119.107H82.1255L82.7384 116.183H101.056ZM102.078 105.43L101.342 108.15L89.6031 108.18L89.3112 108.985H101.383L100.577 111.664H88.4648L88.3539 111.98C88.3014 112.143 88.3131 112.283 88.3889 112.394C88.4532 112.476 88.5349 112.517 88.6341 112.517H100.776L99.906 115.167L86.3809 115.19C85.4353 115.126 84.799 114.723 84.4546 113.988C84.1394 113.334 84.1277 112.546 84.4079 111.629L86.1941 105.418H102.078V105.43Z" fill="#232423"/>
<path d="M116.601 105.307L115.836 108.226H112.089C111.843 108.816 111.534 109.563 111.16 110.473C110.793 111.378 110.437 112.172 110.104 112.843C111.464 113.941 112.421 115.406 112.958 117.262C113.501 119.13 113.548 121.179 113.104 123.403H109.316C109.73 121.798 109.94 120.321 109.935 118.978C109.935 117.397 109.649 115.984 109.082 114.758C108.259 116.474 107.407 118.062 106.52 119.521C105.592 121.045 104.669 122.335 103.765 123.403H100.256C102.037 121.255 103.584 118.809 104.903 116.06C106.029 113.772 107.045 111.156 107.944 108.226H104.132L104.874 105.307H116.613H116.601ZM123.32 111.174L122.695 113.824H120.156L117.354 124.576H113.781L118.282 104.473H122.59L120.798 111.203L123.325 111.18L123.32 111.174Z" fill="#232423"/>
<path d="M139.804 121.343H127.044L126.939 121.81C126.91 121.909 126.91 121.985 126.951 122.031C126.986 122.096 127.044 122.131 127.137 122.131H139.857L139.028 124.536L124.487 124.489C123.699 124.489 123.156 124.203 122.864 123.631C122.637 123.158 122.59 122.627 122.73 122.037L123.518 118.943L136.302 118.961L136.465 118.424C136.489 118.36 136.483 118.29 136.448 118.225C136.395 118.155 136.314 118.126 136.191 118.126L123.962 118.15L124.592 115.745H139.209C139.921 115.745 140.411 115.955 140.68 116.387C140.913 116.749 140.954 117.204 140.814 117.759L139.798 121.343H139.804ZM143.616 112.16L142.77 114.688H123.401L124.131 112.16H138.281L138.573 110.882H126.011L126.641 108.331L139.133 108.355L139.256 107.794C139.291 107.66 139.279 107.555 139.215 107.473C139.139 107.356 138.958 107.304 138.678 107.304H126.629L127.295 104.77L141.672 104.747C142.454 104.765 143.015 104.963 143.348 105.36C143.674 105.774 143.733 106.3 143.523 106.959L142.163 112.16H143.616Z" fill="#232423"/>
<path d="M160.965 116.036L159.208 122.493C159.038 123.065 158.711 123.549 158.227 123.934C157.661 124.366 157.007 124.576 156.266 124.576L146.646 124.606L146.342 122.96L145.875 124.676H142.057L144.13 115.99H148.169L147.761 117.636H156.598L157.065 116.036H160.97H160.965ZM157.194 112.528L155.979 115.178H145.828C145.157 115.178 144.667 114.898 144.363 114.344C144.054 113.789 143.984 113.065 144.153 112.178L144.9 108.763H151.636L151.823 108.249C151.87 108.103 151.87 107.969 151.812 107.858C151.742 107.73 151.625 107.66 151.461 107.66H145.525L146.179 105.062H153.989C154.724 105.045 155.291 105.191 155.688 105.5C156.19 105.909 156.336 106.527 156.096 107.345L154.97 111.396L148.432 111.372L148.239 111.962C148.21 112.16 148.222 112.306 148.286 112.406C148.356 112.522 148.473 112.581 148.619 112.581L157.194 112.534V112.528ZM155.933 120.286H147.002L146.616 121.932H154.83C154.975 121.932 155.121 121.885 155.25 121.786C155.378 121.687 155.483 121.57 155.542 121.436L155.933 120.286ZM164 104.473L160.889 115.301H157.211L158.168 111.326H155.734L156.476 108.751H158.776L159.756 104.473H164Z" fill="#232423"/>
<path d="M107.226 1C107.226 1 88.8967 7.2693 70.5617 24.507C52.2383 41.7446 46.2842 62.508 46.2842 62.508C46.2842 62.508 59.675 42.054 82.4757 37.279C101.978 33.1287 117.727 45.3521 117.727 45.3521L107.226 1Z" fill="#EC8423"/>
<path d="M88.5817 37.9036C88.5817 37.9036 90.8524 56.6297 80.5904 64.3058C70.3342 71.9819 57.4045 67.5981 46.2785 63.5995C46.2785 63.5995 64.5319 79.302 82.9428 79.302C101.354 79.302 107.314 57.0967 107.314 57.0967L88.5875 37.9036H88.5817Z" fill="#A51E23"/>
<path d="M23.8164 90.2296C23.4136 92.5003 22.2578 94.6017 19.5201 96.0202L19.1523 95.4423C21.3589 94.3099 22.468 92.7163 22.9058 90.8892H20.2848L20.4015 90.2296H23.8105H23.8164ZM27.6865 89.0913L26.1338 97.9057H25.3633L26.1747 93.2942H24.9838L24.2483 97.462H23.5012L24.9371 89.3248H25.6843L25.1006 92.6346H26.2914L26.916 89.0854H27.6865V89.0913Z" fill="#231F20"/>
<path d="M30.8328 94.0531C29.5369 94.0531 28.7255 93.1483 28.9473 91.8699C29.1691 90.6032 30.3016 89.7101 31.5975 89.7101C32.8934 89.7101 33.7281 90.6032 33.5063 91.8699C33.2786 93.1483 32.1345 94.0531 30.8328 94.0531ZM30.9554 93.3526C31.8251 93.3526 32.5723 92.7455 32.7299 91.8699C32.8817 91.0177 32.3446 90.4047 31.4807 90.4047C30.6168 90.4047 29.8813 91.0118 29.7295 91.8699C29.5777 92.7455 30.1089 93.3526 30.9554 93.3526ZM35.2633 97.0476L35.1466 97.7072H29.2625L29.7645 94.8761H30.5643L30.179 97.0476H35.2633ZM35.2633 95.5357H34.4636L35.596 89.0972H36.3958L35.2633 95.5357Z" fill="#231F20"/>
<path d="M45.0525 95.0805H41.4859L40.9897 97.8999H40.19L40.6862 95.0805H37.1196L37.2363 94.4208H45.1634L45.0467 95.0805H45.0525ZM44.4513 93.5161H38.4622L39.1685 89.4941H45.0525L44.9358 90.1421H39.8398L39.6588 91.1636H44.5505L44.4396 91.7824H39.5479L39.3553 92.8623H44.5563L44.4396 93.5102L44.4513 93.5161Z" fill="#231F20"/>
<path d="M49.6173 91.7824C49.3722 93.1892 50.0902 94.7536 51.246 95.349L50.6739 95.9969C49.7866 95.5066 49.1504 94.4734 48.9577 93.2942C48.3331 94.5843 47.2882 95.6992 46.2142 96.2129L45.8581 95.5766C47.2182 94.9462 48.5608 93.2767 48.8235 91.7824L49.0219 90.6616H47.0256L47.1423 89.9903H51.8647L51.748 90.6616H49.81L49.6115 91.7824H49.6173ZM54.5674 93.3293H53.1256L52.32 97.9116H51.5203L53.073 89.103H53.8728L53.2482 92.6521H54.69L54.5674 93.3293Z" fill="#231F20"/>
<path d="M58.5775 91.7824C58.3324 93.1892 59.0504 94.7536 60.2062 95.349L59.6341 95.9969C58.7468 95.5066 58.1106 94.4734 57.9179 93.2942C57.2933 94.5843 56.2484 95.6992 55.1744 96.2129L54.8183 95.5766C56.1784 94.9462 57.521 93.2767 57.7837 91.7824L57.9821 90.6616H55.9858L56.1025 89.9903H60.8249L60.7082 90.6616H58.7702L58.5717 91.7824H58.5775ZM63.5276 93.3293H62.0858L61.2802 97.9116H60.4805L62.0332 89.103H62.833L62.2084 92.6521H63.6502L63.5276 93.3293Z" fill="#231F20"/>
<path d="M72.2662 93.1891L72.1611 93.7962H64.2399L64.3449 93.1891H72.2662ZM65.3898 97.211H70.8419L70.7368 97.7889H64.4909L64.8353 95.8334H70.0188L70.1473 95.0979H64.9462L65.0454 94.52H71.0345L70.7018 96.3996H65.5182L65.3723 97.2169L65.3898 97.211ZM71.0404 89.9202H65.9152L66.0144 89.3481H71.9276L71.6008 91.1869H66.4989L66.3647 91.9458H71.6241L71.519 92.5295H65.4715L65.8043 90.644H70.9061L71.0345 89.926L71.0404 89.9202Z" fill="#231F20"/>
<path d="M81.6702 94.1581C80.8179 94.3041 79.954 94.4033 79.1134 94.45L78.553 97.6255H77.7533L78.302 94.5025C77.4264 94.5434 76.5975 94.5492 75.8795 94.5492L75.8912 93.8721C77.5198 93.8721 79.7322 93.8546 81.7052 93.5569L81.6702 94.1581ZM77.0003 91.3154C77.1929 90.2355 78.2436 89.4941 79.5512 89.4941C80.8588 89.4941 81.641 90.2296 81.4542 91.3154C81.2674 92.3894 80.2108 93.1249 78.9149 93.1249C77.619 93.1249 76.8135 92.3894 77.0003 91.3154ZM77.7708 91.3154C77.6482 92.0042 78.1736 92.4653 79.0317 92.4653C79.8898 92.4653 80.5669 92.0042 80.6836 91.3154C80.8062 90.6266 80.2809 90.1654 79.4345 90.1654C78.588 90.1654 77.8934 90.6266 77.7708 91.3154ZM83.9292 89.0972L82.3765 97.9116H81.5768L83.1295 89.0972H83.9292Z" fill="#231F20"/>
<path d="M90.5955 90.8192H85.4412L85.5579 90.1712H87.7294L87.9162 89.103H88.7159L88.5291 90.1712H90.7123L90.5955 90.8192ZM87.35 94.5842C86.1125 94.5842 85.3828 93.9363 85.5579 92.9439C85.733 91.9633 86.6904 91.3153 87.9279 91.3153C89.1654 91.3153 89.9067 91.9633 89.7316 92.9439C89.5565 93.9363 88.5875 94.5842 87.35 94.5842ZM87.4609 93.9538C88.2489 93.9538 88.8677 93.5627 88.9728 92.9381C89.0778 92.331 88.605 91.9341 87.817 91.9341C87.0289 91.9341 86.4218 92.3252 86.3168 92.9381C86.2059 93.5569 86.667 93.9538 87.4609 93.9538ZM86.4569 97.0476H91.4828L91.3661 97.7072H85.5404L85.984 95.1796H86.7838L86.4569 97.0476ZM93.2807 91.9925L93.1581 92.6696H91.8622L91.3252 95.6992H90.5255L91.6871 89.0913H92.4868L91.9731 91.9925H93.269H93.2807Z" fill="#231F20"/>
<path d="M104.313 94.7711H100.741L100.186 97.9058H99.3866L99.9412 94.7711H96.4154L96.5322 94.1115H104.424L104.319 94.7711H104.313ZM97.2385 92.7339C98.797 92.5062 100.49 91.4964 100.694 90.3348V90.2822H97.9448L98.0615 89.6343H104.442L104.325 90.2822H101.587V90.3348C101.371 91.4964 102.708 92.5062 104.202 92.7339L103.776 93.376C102.463 93.1367 101.295 92.4012 100.957 91.3621C100.239 92.407 98.8204 93.1425 97.4253 93.376L97.2326 92.7339H97.2385Z" fill="#231F20"/>
<path d="M110.39 93.8721C109.45 93.5102 108.796 92.7513 108.58 91.7765C108.014 92.8214 107.074 93.6328 105.983 94.0297L105.685 93.3876C107.086 92.909 108.189 91.6773 108.423 90.358L108.575 89.4941H109.374L109.223 90.358C109.001 91.6247 109.69 92.7747 110.91 93.23L110.396 93.8663L110.39 93.8721ZM106.672 94.8469H112.515L111.972 97.9116H111.172L111.598 95.4949H106.555L106.672 94.8469ZM113.531 89.0972L112.597 94.3975H111.797L112.731 89.0972H113.531Z" fill="#231F20"/>
<path d="M119.21 94.0122C118.299 93.6561 117.675 92.9323 117.459 92.0275C116.91 93.049 115.953 93.8779 114.861 94.269L114.558 93.6328C115.947 93.1541 117.056 91.9633 117.278 90.6966L117.33 90.3931H115.381L115.498 89.7451H120.162L120.045 90.3931H118.124L118.072 90.6966C117.873 91.829 118.533 92.9381 119.724 93.3876L119.216 94.018L119.21 94.0122ZM121.277 96.2654C121.09 97.3103 119.876 97.9057 118.083 97.9057C116.291 97.9057 115.276 97.3045 115.463 96.2654C115.643 95.2264 116.869 94.6251 118.661 94.6251C120.453 94.6251 121.457 95.2264 121.277 96.2654ZM120.488 96.2654C120.599 95.6291 119.87 95.2439 118.556 95.2439C117.243 95.2439 116.373 95.6291 116.262 96.2654C116.151 96.9017 116.881 97.2811 118.2 97.2811C119.519 97.2811 120.378 96.9075 120.494 96.2654H120.488ZM121.312 91.3796L121.714 89.0972H122.52L121.598 94.3449H120.792L121.201 92.0333H119.479L119.595 91.3737H121.317L121.312 91.3796Z" fill="#231F20"/>
<path d="M130.961 96.1135L130.844 96.7732H122.923L123.039 96.1135H126.583L126.915 94.2164H124.306L125.1 89.7158H125.888L125.614 91.2919H130.073L130.348 89.7158H131.13L130.336 94.2164H127.727L127.394 96.1135H130.961ZM125.217 93.5685H129.676L129.962 91.9457H125.503L125.217 93.5685Z" fill="#231F20"/>
<path d="M135.403 95.489C136.238 95.4482 137.096 95.3898 137.913 95.2847L137.866 95.886C135.858 96.2129 133.751 96.2421 132.146 96.2421V95.5649C132.887 95.5649 133.727 95.5533 134.597 95.5241L134.767 94.5784C133.757 94.45 133.19 93.8429 133.348 92.9556C133.523 91.9633 134.492 91.3212 135.741 91.3212C136.991 91.3212 137.72 91.9575 137.545 92.9556C137.393 93.8312 136.623 94.4383 135.566 94.5667L135.403 95.489ZM138.479 90.8192H133.167L133.284 90.1712H135.543L135.73 89.103H136.529L136.343 90.1712H138.59L138.473 90.8192H138.479ZM135.274 93.9538C136.062 93.9538 136.675 93.5627 136.786 92.9498C136.897 92.3311 136.419 91.9341 135.63 91.9341C134.842 91.9341 134.218 92.3252 134.107 92.9498C134.002 93.5569 134.475 93.9538 135.274 93.9538ZM140.359 89.0972L138.806 97.9057H138.006L139.559 89.0972H140.359Z" fill="#231F20"/>
<path d="M144.719 91.4379C144.445 92.9907 145.157 94.5901 146.278 95.2147L145.665 95.851C144.83 95.349 144.223 94.3157 144.036 93.1074C143.429 94.3975 142.425 95.4949 141.351 96.0261L140.989 95.3781C142.361 94.7302 143.651 93.0374 143.931 91.4379L144.211 89.856H144.999L144.719 91.4379ZM149.617 93.3351H148.175L147.369 97.9057H146.57L148.122 89.0972H148.922L148.292 92.6638H149.734L149.617 93.3351Z" fill="#231F20"/>
</svg>
